# xmcd
#
# Track frame offsets: 
#        150
#        15340
#        36209
#        51618
#        65377
#        81074
#        97466
#        118093
#        134178
#        149618
#        171684
#
# Disc length: 2535 seconds
#
# Revision: 0
# Processed by: cddbd v1.5.2PL0 Copyright (c) Steve Scherf et al.
# Submitted via: ExactAudioCopy v1.3
#
DISCID=b009e50b
DTITLE=Trond Ytterbø - Morragry
DYEAR=2011
DGENRE=Blues
TTITLE0=Fant aldri ord
TTITLE1=En dag
TTITLE2=I går, i dag, i morra
TTITLE3=Ta en skål for meg
TTITLE4=Vekk fra der du bor
TTITLE5=En stein i veggen
TTITLE6=Vanskelige tider
TTITLE7=Kjære vesle jente
TTITLE8=Morragry
TTITLE9=Toget er på veg
TTITLE10=Forbaska dumt det der
EXTD=
EXTT0=
EXTT1=
EXTT2=
EXTT3=
EXTT4=
EXTT5=
EXTT6=
EXTT7=
EXTT8=
EXTT9=
EXTT10=
PLAYORDER=
